<svg width="200" height="200" viewBox="0 0 200 200" fill="none" xmlns="http://www.w3.org/2000/svg" xmlns:xlink="http://www.w3.org/1999/xlink">
<path d="M155.556,88.889C159.333,88.889 163,89.333 166.667,89.889L166.667,36.333L83.333,0L0,36.333L0,90.889C0,141.333 35.556,188.556 83.333,200C89.444,198.556 95.333,196.444 101.111,193.889C93.444,183 88.889,169.778 88.889,155.556C88.889,118.778 118.778,88.889 155.556,88.889Z" fill="#FFC300"/>
<path d="M155.556,111.111C131,111.111 111.111,131 111.111,155.556C111.111,180.111 131,200 155.556,200C180.111,200 200,180.111 200,155.556C200,131 180.111,111.111 155.556,111.111ZM155.556,126.444C162.445,126.444 168,132.111 168,138.889C168,145.667 162.333,151.333 155.556,151.333C148.778,151.333 143.111,145.667 143.111,138.889C143.111,132.111 148.667,126.444 155.556,126.444ZM155.556,186.111C145.222,186.111 136.222,181 130.667,173.111C131.222,165.111 147.445,161.111 155.556,161.111C163.667,161.111 179.889,165.111 180.445,173.111C174.889,181 165.889,186.111 155.556,186.111Z" fill="#FFC300"/>
</svg>
