<svg width="200" height="297" viewBox="0 0 200 297" fill="none" xmlns="http://www.w3.org/2000/svg">
<rect width="200" height="296.28" rx="15" fill="#000814"/>
<path fill-rule="evenodd" clip-rule="evenodd" d="M60 197.5C60 201.09 57.0899 204 53.5 204V204C49.9101 204 47 201.09 47 197.5V100.5C47 96.9101 49.9101 94 53.5 94V94C57.0899 94 60 96.9101 60 100.5V101.5H74V101.5C74 94.0442 80.0442 88 87.5 88H113C120.732 88 127 94.268 127 102V102H140.5V100.75C140.5 97.0221 143.522 94 147.25 94V94C150.978 94 154 97.0221 154 100.75V197C154 200.866 150.866 204 147 204V204C143.134 204 140 200.866 140 197V195.5H127V195.5C127 202.68 121.18 208.5 114 208.5H86.5C79.3203 208.5 73.5 202.68 73.5 195.5V195.5H60V197.5ZM127 169V182H140V169H127ZM127 142V155H140V142H127ZM127 116V128H140V116H127ZM73.5 169V182H60V169H73.5ZM60 142V155.5H73.5V142H60ZM60 115.5V128.5H73.5V115.5H60Z" fill="#FFC300"/>
</svg>
