<svg width="200" height="297" viewBox="0 0 200 297" fill="none" xmlns="http://www.w3.org/2000/svg">
<rect width="200" height="296.28" rx="15" fill="#000814"/>
<path d="M139.539 208.563C132.147 205.799 123.73 198.335 123.73 192.767C123.73 189.081 123.73 184.476 123.73 178.158C128.469 172.896 135.578 165.129 137.947 151.705C143.476 149.73 146.635 146.572 150.584 132.753C154.786 118.036 144.266 118.539 144.266 118.539C144.266 118.539 144.266 110.642 144.266 103.801C144.266 92.2176 138.872 58 99.5048 58C60.1433 58 54.7503 92.2176 54.7503 103.801C54.7503 110.642 54.7503 118.539 54.7503 118.539C54.7503 118.539 44.2296 118.036 48.4316 132.753C52.3748 146.572 55.534 149.73 61.0628 151.705C63.4324 165.129 70.5468 172.896 75.2857 178.158C75.2857 184.475 75.2857 189.081 75.2857 192.767C75.2857 198.335 66.1966 206.195 59.4768 208.563C48.6537 212.379 21.6643 215.069 15 238H184C177.312 215.134 150.282 212.583 139.539 208.563Z" fill="#FFC300"/>
</svg>
